<mxfile host="app.diagrams.net" agent="Mozilla/5.0 (Macintosh; Intel Mac OS X 10_15_7) AppleWebKit/537.36 (KHTML, like Gecko) Chrome/127.0.0.0 Safari/537.36" version="24.7.6">
  <diagram name="第 1 页" id="qOQ1Agn8aGRh5-0NEAmL">
    <mxGraphModel dx="1026" dy="609" grid="1" gridSize="10" guides="1" tooltips="1" connect="1" arrows="1" fold="1" page="1" pageScale="1" pageWidth="827" pageHeight="1169" math="0" shadow="0">
      <root>
        <mxCell id="0" />
        <mxCell id="1" parent="0" />
        <mxCell id="Flq9YjcJue-TEyOrC63v-3" value="" style="edgeStyle=orthogonalEdgeStyle;rounded=0;orthogonalLoop=1;jettySize=auto;html=1;" edge="1" parent="1" source="Flq9YjcJue-TEyOrC63v-1" target="Flq9YjcJue-TEyOrC63v-2">
          <mxGeometry relative="1" as="geometry" />
        </mxCell>
        <mxCell id="Flq9YjcJue-TEyOrC63v-4" value="" style="edgeStyle=orthogonalEdgeStyle;rounded=0;orthogonalLoop=1;jettySize=auto;html=1;" edge="1" parent="1" source="Flq9YjcJue-TEyOrC63v-1" target="Flq9YjcJue-TEyOrC63v-2">
          <mxGeometry relative="1" as="geometry" />
        </mxCell>
        <mxCell id="Flq9YjcJue-TEyOrC63v-8" style="edgeStyle=orthogonalEdgeStyle;rounded=0;orthogonalLoop=1;jettySize=auto;html=1;entryX=0;entryY=0.5;entryDx=0;entryDy=0;" edge="1" parent="1" source="Flq9YjcJue-TEyOrC63v-1" target="Flq9YjcJue-TEyOrC63v-5">
          <mxGeometry relative="1" as="geometry" />
        </mxCell>
        <mxCell id="Flq9YjcJue-TEyOrC63v-9" style="edgeStyle=orthogonalEdgeStyle;rounded=0;orthogonalLoop=1;jettySize=auto;html=1;entryX=0;entryY=0.25;entryDx=0;entryDy=0;" edge="1" parent="1" source="Flq9YjcJue-TEyOrC63v-1" target="Flq9YjcJue-TEyOrC63v-6">
          <mxGeometry relative="1" as="geometry" />
        </mxCell>
        <mxCell id="Flq9YjcJue-TEyOrC63v-10" style="edgeStyle=orthogonalEdgeStyle;rounded=0;orthogonalLoop=1;jettySize=auto;html=1;entryX=0;entryY=0.5;entryDx=0;entryDy=0;" edge="1" parent="1" source="Flq9YjcJue-TEyOrC63v-1" target="Flq9YjcJue-TEyOrC63v-7">
          <mxGeometry relative="1" as="geometry" />
        </mxCell>
        <mxCell id="Flq9YjcJue-TEyOrC63v-1" value="crm订单" style="rounded=0;whiteSpace=wrap;html=1;" vertex="1" parent="1">
          <mxGeometry x="50" y="190" width="120" height="60" as="geometry" />
        </mxCell>
        <mxCell id="Flq9YjcJue-TEyOrC63v-13" style="edgeStyle=orthogonalEdgeStyle;rounded=0;orthogonalLoop=1;jettySize=auto;html=1;" edge="1" parent="1" source="Flq9YjcJue-TEyOrC63v-2" target="Flq9YjcJue-TEyOrC63v-11">
          <mxGeometry relative="1" as="geometry" />
        </mxCell>
        <mxCell id="Flq9YjcJue-TEyOrC63v-2" value="子订单1001、10元&lt;div&gt;中国移动，话费收取&lt;/div&gt;" style="whiteSpace=wrap;html=1;rounded=0;fillColor=#ffe6cc;strokeColor=#d79b00;" vertex="1" parent="1">
          <mxGeometry x="330" y="140" width="120" height="60" as="geometry" />
        </mxCell>
        <mxCell id="Flq9YjcJue-TEyOrC63v-15" style="edgeStyle=orthogonalEdgeStyle;rounded=0;orthogonalLoop=1;jettySize=auto;html=1;entryX=0;entryY=0.5;entryDx=0;entryDy=0;" edge="1" parent="1" target="Flq9YjcJue-TEyOrC63v-17">
          <mxGeometry relative="1" as="geometry">
            <mxPoint x="524" y="490" as="targetPoint" />
            <mxPoint x="414" y="260" as="sourcePoint" />
          </mxGeometry>
        </mxCell>
        <mxCell id="Flq9YjcJue-TEyOrC63v-5" value="子订单1002、1000元&lt;div&gt;买手机，手机归属代理商店&lt;/div&gt;" style="whiteSpace=wrap;html=1;rounded=0;fillColor=#f8cecc;strokeColor=#b85450;" vertex="1" parent="1">
          <mxGeometry x="330" y="230" width="120" height="60" as="geometry" />
        </mxCell>
        <mxCell id="Flq9YjcJue-TEyOrC63v-12" value="" style="edgeStyle=orthogonalEdgeStyle;rounded=0;orthogonalLoop=1;jettySize=auto;html=1;" edge="1" parent="1" source="Flq9YjcJue-TEyOrC63v-6" target="Flq9YjcJue-TEyOrC63v-11">
          <mxGeometry relative="1" as="geometry" />
        </mxCell>
        <mxCell id="Flq9YjcJue-TEyOrC63v-6" value="子订单1003、20元&lt;div&gt;中国移动，开卡10&lt;/div&gt;" style="whiteSpace=wrap;html=1;rounded=0;fillColor=#ffe6cc;strokeColor=#d79b00;" vertex="1" parent="1">
          <mxGeometry x="330" y="330" width="120" height="60" as="geometry" />
        </mxCell>
        <mxCell id="Flq9YjcJue-TEyOrC63v-16" style="edgeStyle=orthogonalEdgeStyle;rounded=0;orthogonalLoop=1;jettySize=auto;html=1;entryX=0;entryY=0.5;entryDx=0;entryDy=0;" edge="1" parent="1" source="Flq9YjcJue-TEyOrC63v-7" target="Flq9YjcJue-TEyOrC63v-17">
          <mxGeometry relative="1" as="geometry">
            <mxPoint x="520" y="520" as="targetPoint" />
            <Array as="points">
              <mxPoint x="520" y="460" />
              <mxPoint x="520" y="500" />
            </Array>
          </mxGeometry>
        </mxCell>
        <mxCell id="Flq9YjcJue-TEyOrC63v-7" value="子订单1003、10元&lt;div&gt;买手机壳，10元&lt;/div&gt;&lt;div&gt;归属于代理商&lt;/div&gt;" style="whiteSpace=wrap;html=1;rounded=0;fillColor=#f8cecc;strokeColor=#b85450;" vertex="1" parent="1">
          <mxGeometry x="330" y="430" width="120" height="60" as="geometry" />
        </mxCell>
        <mxCell id="Flq9YjcJue-TEyOrC63v-11" value="统一支付收银台&lt;div&gt;&lt;pre style=&quot;background-color: rgb(255, 255, 255); font-family: &amp;quot;JetBrains Mono&amp;quot;, monospace; font-size: 11.3pt;&quot;&gt;&lt;span style=&quot;color:#008000;font-weight:bold;&quot;&gt;payment.pay.createPayDetail&lt;br/&gt;&lt;/span&gt;&lt;span style=&quot;color: rgb(2, 92, 170); font-family: &amp;quot;Arial Narrow Bold&amp;quot;, &amp;quot;Arial Narrow&amp;quot;, Arial, sans-serif; font-size: 20px; font-weight: 700; letter-spacing: 2px; text-align: left; white-space: normal; background-color: rgb(242, 242, 242);&quot;&gt;移动支付收银台&lt;/span&gt;&lt;span style=&quot;color:#008000;font-weight:bold;&quot;&gt;&lt;br/&gt;&lt;/span&gt;&lt;/pre&gt;&lt;/div&gt;" style="whiteSpace=wrap;html=1;fillColor=#ffe6cc;strokeColor=#d79b00;rounded=0;" vertex="1" parent="1">
          <mxGeometry x="560" y="325" width="260" height="70" as="geometry" />
        </mxCell>
        <mxCell id="Flq9YjcJue-TEyOrC63v-17" value="代理商a&lt;div&gt;payment.pay.doOrderPay&lt;br&gt;&lt;/div&gt;&lt;div&gt;终端支付收银台&lt;/div&gt;" style="rounded=1;whiteSpace=wrap;html=1;fillColor=#f8cecc;strokeColor=#b85450;" vertex="1" parent="1">
          <mxGeometry x="627" y="470" width="200" height="60" as="geometry" />
        </mxCell>
        <mxCell id="Flq9YjcJue-TEyOrC63v-23" value="" style="edgeStyle=orthogonalEdgeStyle;rounded=0;orthogonalLoop=1;jettySize=auto;html=1;" edge="1" parent="1" source="Flq9YjcJue-TEyOrC63v-18" target="Flq9YjcJue-TEyOrC63v-21">
          <mxGeometry relative="1" as="geometry" />
        </mxCell>
        <mxCell id="Flq9YjcJue-TEyOrC63v-18" value="子订单1004、10元&lt;div&gt;买手机壳，10元&lt;/div&gt;&lt;div&gt;归属于代理商b&lt;/div&gt;" style="whiteSpace=wrap;html=1;rounded=0;" vertex="1" parent="1">
          <mxGeometry x="330" y="570" width="120" height="60" as="geometry" />
        </mxCell>
        <mxCell id="Flq9YjcJue-TEyOrC63v-21" value="代理商b" style="rounded=1;whiteSpace=wrap;html=1;" vertex="1" parent="1">
          <mxGeometry x="630" y="570" width="120" height="60" as="geometry" />
        </mxCell>
      </root>
    </mxGraphModel>
  </diagram>
</mxfile>
